<svg width="147" height="123" viewBox="0 0 147 123" fill="none" xmlns="http://www.w3.org/2000/svg">
<path d="M18.7621 63.2925C18.8847 63.0242 19.0796 62.8045 19.32 62.664C19.5604 62.5234 19.8344 62.4688 20.104 62.5077C20.1016 62.4897 20.1033 62.4713 20.1087 62.4542C20.1142 62.4371 20.1234 62.4217 20.1355 62.4094C20.1476 62.3971 20.1623 62.3883 20.1782 62.3837C20.1941 62.3791 20.2107 62.3788 20.2267 62.383L19.3169 61.6623C19.0448 61.4565 18.8492 61.1488 18.7664 60.796C18.6836 60.4432 18.7191 60.0692 18.8664 59.7431C19.0213 59.4263 19.2772 59.1843 19.5845 59.0642C19.8917 58.9441 20.2283 58.9543 20.5291 59.093C20.5269 59.0788 20.5354 59.0652 20.5373 59.0506L20.1635 58.7543C19.9077 58.5591 19.7209 58.2723 19.6346 57.9424C19.5482 57.6124 19.5677 57.2597 19.6897 56.9438C19.7698 56.7474 19.8884 56.5732 20.0369 56.4336C20.1853 56.2941 20.36 56.1927 20.5482 56.1367C20.7364 56.0808 20.9335 56.0717 21.1253 56.1102C21.317 56.1486 21.4987 56.2336 21.6572 56.359L22.5199 57.0424C22.5223 57.0367 22.5199 57.03 22.5234 57.0249C22.527 57.0197 22.536 57.0176 22.5409 57.0119C22.3429 56.7656 22.2265 56.4523 22.2107 56.1234C22.195 55.7944 22.2809 55.4693 22.4544 55.2013C22.8614 54.4771 23.8016 54.6263 24.3592 55.067L29.4365 58.9411L28.5289 57.2528C28.346 56.9279 28.2817 56.5383 28.3488 56.163C28.4159 55.7876 28.6095 55.4544 28.8904 55.2307C29.0388 55.1208 29.206 55.0455 29.3817 55.0093C29.5574 54.9732 29.7379 54.9771 29.9122 55.0207C30.0865 55.0643 30.251 55.1467 30.3955 55.2629C30.54 55.3791 30.6615 55.5266 30.7527 55.6965L35.7078 64.9157C36.2891 65.9972 36.4659 67.2865 36.2007 68.5098C35.9355 69.7331 35.2492 70.7939 34.2875 71.4668C33.1722 72.2473 31.8715 72.6418 30.5519 72.6C29.2324 72.5582 27.9542 72.0818 26.8812 71.232L19.2129 65.1584C18.9587 64.9488 18.776 64.6506 18.6942 64.312C18.6124 63.9734 18.6363 63.6142 18.7621 63.2925Z" fill="#E98862"/>
<g opacity="0.25">
<path d="M27.5441 60.8724C27.5253 60.9006 27.4973 60.9195 27.466 60.9252C27.4348 60.9308 27.4027 60.9228 27.3768 60.9027L22.5525 57.2101C22.5274 57.1893 22.5105 57.1584 22.5055 57.1241C22.5004 57.0897 22.5077 57.0546 22.5256 57.026C22.5436 56.9974 22.5708 56.9777 22.6017 56.9709C22.6326 56.9641 22.6646 56.9707 22.6911 56.9895L27.5151 60.682C27.5415 60.7023 27.5596 60.7334 27.5654 60.7684C27.5711 60.8034 27.5641 60.8395 27.5458 60.8688L27.5441 60.8724Z" fill="#0C0C0C"/>
</g>
<g opacity="0.25">
<path d="M26.1286 63.268C26.1098 63.2962 26.0818 63.3152 26.0506 63.3208C26.0194 63.3265 25.9874 63.3184 25.9615 63.2983L20.5777 59.1784C20.5646 59.1684 20.5534 59.1556 20.5448 59.1407C20.5361 59.1259 20.5302 59.1093 20.5273 59.0919C20.5245 59.0746 20.5248 59.0567 20.5282 59.0395C20.5315 59.0222 20.538 59.0059 20.5471 58.9914C20.5661 58.9632 20.5942 58.944 20.6256 58.9377C20.6569 58.9315 20.6893 58.9387 20.716 58.9578L26.1012 63.0786C26.1276 63.0989 26.1457 63.1299 26.1514 63.1649C26.1572 63.1999 26.1501 63.236 26.1318 63.2653L26.1286 63.268Z" fill="#0C0C0C"/>
</g>
<g opacity="0.25">
<path d="M24.6097 65.8744C24.5909 65.9026 24.5629 65.9216 24.5316 65.9272C24.5004 65.9329 24.4683 65.9248 24.4424 65.9047L20.1478 62.6184C20.1347 62.6083 20.1236 62.5955 20.1149 62.5807C20.1063 62.5658 20.1004 62.5493 20.0976 62.5319C20.0948 62.5146 20.0951 62.4968 20.0985 62.4796C20.1019 62.4624 20.1083 62.4461 20.1174 62.4316C20.1265 62.4172 20.1381 62.4048 20.1515 62.3953C20.1649 62.3858 20.1799 62.3793 20.1956 62.3761C20.2113 62.373 20.2274 62.3734 20.243 62.3771C20.2585 62.3809 20.2733 62.388 20.2864 62.398L24.5807 65.685C24.5938 65.695 24.605 65.7078 24.6137 65.7226C24.6223 65.7374 24.6282 65.754 24.6311 65.7713C24.6339 65.7887 24.6336 65.8064 24.6303 65.8237C24.6269 65.8409 24.6205 65.8572 24.6114 65.8717L24.6097 65.8744Z" fill="#0C0C0C"/>
</g>
<path d="M36.6792 59.7617L53.9705 85.9232L72.4001 59.7617L85.733 74.8768L60.5508 110.918L60.3865 111.174C59.3785 112.7 58.0356 113.917 56.4844 114.711C54.9331 115.504 53.2246 115.848 51.5198 115.71C49.815 115.572 48.1701 114.957 46.7399 113.922C45.3097 112.888 44.1415 111.468 43.3452 109.796L21.8633 71.4455L36.6792 59.7617Z" fill="#367CFF"/>
<path d="M55.3983 89.2172C55.4299 89.2172 55.461 89.2081 55.4885 89.191C55.5161 89.1739 55.5392 89.1493 55.5557 89.1194C55.5722 89.0896 55.5815 89.0556 55.5827 89.0207C55.5839 88.9858 55.577 88.9511 55.5626 88.92L54.1363 85.8307C54.112 85.7865 54.0735 85.7542 54.0284 85.7401C53.9834 85.7261 53.9353 85.7314 53.8937 85.7549C53.852 85.7785 53.82 85.8186 53.8041 85.8672C53.7881 85.9158 53.7894 85.9692 53.8076 86.0168L55.2342 89.1058C55.2496 89.1393 55.2731 89.1674 55.3021 89.1871C55.331 89.2067 55.3643 89.2172 55.3983 89.2172Z" fill="#0C0C0C"/>
<path d="M114.392 22.938C114.392 22.938 116.699 32.254 119.252 35.2483C126.601 43.8685 130.246 54.6049 125.77 61.6476C121.293 68.6903 85.956 76.7146 80.8245 63.9818C76.5045 53.2626 81.1211 50.9672 80.5947 41.4429C80.3565 37.133 80.2055 28.0173 80.2055 28.0173" fill="#0A0A0A"/>
<path d="M86.7734 56.8924C86.8356 56.8833 87.5266 69.5553 100.847 68.4505C110.069 67.6869 113.357 56.8745 113.568 56.8745C112.574 56.6408 110.9 56.3013 110.458 56.041C109.007 55.1787 107.209 54.2813 106.741 51.165C106.472 49.3687 106.929 40.1783 106.788 38.3623L92.6332 41.8535C92.8309 45.6919 94.2151 54.5897 89.3632 56.1645C88.5558 56.425 87.6862 56.6645 86.7734 56.8924Z" fill="#E98862"/>
<path opacity="0.52" d="M92.4355 52.5268C92.6573 51.7371 92.8001 50.9229 92.8614 50.0988C93.017 48.2183 92.9859 46.3245 92.7689 44.4514C95.6459 44.0222 98.3563 42.7099 100.592 40.6636C100.855 41.7362 102.301 46.4236 101.901 47.4433C101.143 49.3709 97.5887 52.5268 92.4355 52.5268Z" fill="#0C0C0C"/>
<path d="M95.4583 50.174C101.035 49.53 107.666 45.5224 107.651 37.1443L107.638 29.5846C107.623 21.2066 103.629 14.4233 96.4913 14.439C89.3531 14.4544 84.0302 21.258 84.045 29.6361L84.051 32.983C84.0565 36.1976 85.5088 51.3232 95.4583 50.174Z" fill="#E98862"/>
<path opacity="0.52" d="M91.3399 39.4243C91.3353 39.4246 91.3308 39.4246 91.3262 39.4243C91.0367 39.4227 90.7475 39.4034 90.46 39.3665C90.0297 39.308 89.4579 39.1821 89.457 38.7632C89.457 38.2856 90.6303 33.1337 90.7642 32.5465C90.7693 32.5203 90.779 32.4955 90.7929 32.4735C90.8069 32.4516 90.8246 32.433 90.8452 32.4188C90.8658 32.4046 90.8887 32.3952 90.9127 32.3911C90.9367 32.3869 90.9611 32.3882 90.9846 32.3947C91.0081 32.4013 91.0302 32.413 91.0495 32.4292C91.0688 32.4455 91.085 32.4658 91.097 32.4891C91.109 32.5123 91.1167 32.5381 91.1195 32.5647C91.1223 32.5913 91.1202 32.6182 91.1134 32.644C90.6122 34.8386 89.8169 38.4409 89.8174 38.7623C89.8878 38.8964 90.6076 39.0275 91.3254 39.0263C91.3715 39.027 91.4156 39.0472 91.4486 39.0827C91.4816 39.1183 91.5011 39.1664 91.5029 39.2174C91.5048 39.2683 91.4889 39.318 91.4586 39.3564C91.4283 39.3948 91.3858 39.4188 91.3399 39.4237V39.4243Z" fill="#0C0C0C"/>
<path opacity="0.52" d="M92.6568 41.4618C93.8082 41.3818 94.9605 41.602 96.0207 42.1047C96.0426 42.1146 96.0626 42.1292 96.0794 42.1477C96.0962 42.1661 96.1095 42.1881 96.1186 42.2122C96.1278 42.2363 96.1325 42.2622 96.1326 42.2884C96.1326 42.3146 96.1281 42.3405 96.1191 42.3647C96.1101 42.3889 96.0969 42.4109 96.0802 42.4295C96.0635 42.448 96.0436 42.4628 96.0218 42.4729C96 42.483 95.9765 42.4882 95.9528 42.4883C95.9292 42.4884 95.9057 42.4833 95.8838 42.4733C93.6005 41.4491 91.5451 41.6456 89.9408 43.0408C89.9085 43.0703 89.8748 43.0978 89.8397 43.1232C89.7988 43.149 89.7503 43.156 89.7046 43.1427C89.659 43.1295 89.6199 43.0969 89.5958 43.0522C89.5716 43.0074 89.5643 42.9539 89.5754 42.9033C89.5865 42.8526 89.6151 42.8087 89.6552 42.7812C89.668 42.7721 89.6888 42.7533 89.7179 42.7279C90.5617 41.9921 91.585 41.5512 92.6568 41.4618Z" fill="#0C0C0C"/>
<path d="M113.588 30.9628L107.196 31.0173C102.158 29.9144 99.1948 21.2673 99.1948 21.2673C99.1948 21.2673 94.5735 28.5869 80.2049 28.0167C80.2049 28.0167 79.2923 6.21633 100.698 8.08589C107.599 8.6888 113.57 14.9969 114.674 24.8817C115.447 31.8085 113.588 30.9628 113.588 30.9628Z" fill="#0A0A0A"/>
<path d="M107.213 39.7006C109.382 39.696 111.136 37.1279 111.132 34.7302C111.127 32.3325 109.366 31.0147 107.197 31.0195L106.082 32.6282L105.348 39.7048L107.213 39.7006Z" fill="#E98862"/>
<path d="M88.8329 28.9457C88.1468 28.6392 87.3987 28.5422 86.6671 28.6649C86.3064 28.7229 85.9555 28.8404 85.6264 29.0135C85.3002 29.1834 84.9947 29.3979 84.7171 29.6522C84.6805 29.6863 84.6571 29.7346 84.6516 29.7872C84.6461 29.8398 84.659 29.8927 84.6876 29.9352C84.7162 29.9776 84.7584 30.0064 84.8056 30.0157C84.8527 30.025 84.9013 30.014 84.9414 29.9851L84.9535 29.9757C85.2133 29.7593 85.4967 29.5799 85.797 29.4415C86.0937 29.303 86.4076 29.2148 86.7282 29.18C87.3628 29.106 88.0038 29.2187 88.5864 29.5066L88.6053 29.5166C88.6391 29.5378 88.6765 29.5511 88.7152 29.5556C88.7539 29.5601 88.7931 29.5558 88.8301 29.5428C88.8672 29.5298 88.9015 29.5085 88.9308 29.4802C88.9601 29.4519 88.9838 29.4173 89.0004 29.3784C89.0171 29.3395 89.0262 29.2972 89.0274 29.2543C89.0285 29.2113 89.0217 29.1685 89.0072 29.1286C88.9927 29.0887 88.9709 29.0525 88.9431 29.0224C88.9154 28.9922 88.8823 28.9687 88.846 28.9533L88.8329 28.9457Z" fill="#0C0C0C"/>
<path d="M94.5864 29.2162C95.1668 28.9228 95.807 28.8042 96.4422 28.8724C96.7623 28.9045 97.0762 28.9897 97.3734 29.1251C97.6747 29.2607 97.9594 29.4377 98.2207 29.6518L98.2325 29.6606C98.2728 29.6923 98.3228 29.7052 98.3717 29.6965C98.4206 29.6878 98.4644 29.6582 98.4936 29.614C98.5228 29.5698 98.5351 29.5147 98.5278 29.4606C98.5205 29.4065 98.4942 29.3577 98.4546 29.3249C98.175 29.0732 97.8679 28.8615 97.5404 28.6948C97.2102 28.5247 96.8587 28.4104 96.4978 28.3558C95.7651 28.2402 95.0177 28.3447 94.3342 28.6584C94.2982 28.6729 94.2653 28.6953 94.2374 28.7243C94.2096 28.7533 94.1873 28.7882 94.172 28.827C94.1567 28.8658 94.1487 28.9076 94.1484 28.9499C94.1482 28.9922 94.1557 29.0341 94.1706 29.0731C94.1854 29.1121 94.2073 29.1473 94.2348 29.1767C94.2624 29.206 94.2951 29.2289 94.3308 29.2439C94.3666 29.2589 94.4048 29.2657 94.443 29.2639C94.4813 29.2621 94.5188 29.2518 94.5533 29.2335L94.5643 29.2284L94.5864 29.2162Z" fill="#0C0C0C"/>
<path d="M107.169 30.9331L107.196 30.7309C98.8361 29.2812 99.2798 20.3916 99.2858 20.302L99.1015 20.2881C99.096 20.3795 98.6378 29.4537 107.169 30.9331Z" fill="#0C0C0C"/>
<path opacity="0.1" d="M96.993 38.8481C97.9148 38.7646 98.6171 38.091 98.5617 37.3437C98.5062 36.5963 97.714 36.0582 96.7922 36.1417C95.8703 36.2252 95.168 36.8988 95.2235 37.6462C95.2789 38.3935 96.0712 38.9317 96.993 38.8481Z" fill="#0C0C0C"/>
<path opacity="0.1" d="M86.9478 38.0667C87.0012 38.8134 86.299 39.4862 85.3774 39.5709C85.2181 39.5855 85.0578 39.5815 84.8992 39.5591C84.6977 38.6999 84.5413 37.8642 84.4219 37.0861C84.6592 36.9609 84.9155 36.8858 85.1778 36.8648C86.0993 36.7798 86.8914 37.3176 86.9478 38.0667Z" fill="#0C0C0C"/>
<path d="M70.2216 84.7885C70.6412 90.2365 72.6823 121.195 73.0858 127.905H128.682C128.996 121.853 130.407 98.4175 131.597 86.5833C132.734 75.2906 134.966 67.7436 133.329 64.4052C130.659 58.9491 128.556 56.6682 121.216 55.7959C117.735 55.3947 114.221 55.5182 110.769 56.163C110.769 56.163 110.382 64.8174 101.152 65.299C88.5866 65.9542 89.4219 56.1866 89.3633 56.163C86.7733 55.1164 78.7801 54.5759 74.8095 57.4733C67.2345 63.0008 69.3321 73.2442 70.2216 84.7885Z" fill="#367CFF"/>
<path d="M87.0705 33.8093C87.5561 33.8093 87.9497 33.3743 87.9497 32.8378C87.9497 32.3012 87.5561 31.8662 87.0705 31.8662C86.585 31.8662 86.1914 32.3012 86.1914 32.8378C86.1914 33.3743 86.585 33.8093 87.0705 33.8093Z" fill="#0C0C0C"/>
<path d="M95.6936 33.2854C96.1791 33.2854 96.5727 32.8504 96.5727 32.3138C96.5727 31.7773 96.1791 31.3423 95.6936 31.3423C95.208 31.3423 94.8145 31.7773 94.8145 32.3138C94.8145 32.8504 95.208 33.2854 95.6936 33.2854Z" fill="#0C0C0C"/>
<path d="M70.6484 88.3255L70.2793 88.3486L70.7235 96.9991L71.0926 96.9759L70.6484 88.3255Z" fill="#0C0C0C"/>
<path d="M130.464 101.062C130.518 101.062 130.57 101.039 130.61 100.999C130.65 100.958 130.674 100.902 130.678 100.843L131.264 92.8473C131.266 92.8161 131.263 92.7847 131.254 92.7549C131.246 92.7252 131.232 92.6976 131.213 92.6738C131.195 92.6499 131.173 92.6303 131.147 92.616C131.122 92.6018 131.095 92.5931 131.067 92.5906C131.038 92.5881 131.01 92.5917 130.983 92.6013C130.956 92.6109 130.931 92.6263 130.91 92.6466C130.888 92.6668 130.87 92.6916 130.857 92.7194C130.844 92.7473 130.837 92.7777 130.834 92.8088L130.249 100.804C130.246 100.836 130.25 100.867 130.258 100.897C130.267 100.926 130.281 100.954 130.299 100.978C130.318 101.002 130.34 101.021 130.365 101.036C130.391 101.05 130.418 101.058 130.446 101.061C130.452 101.062 130.458 101.062 130.464 101.062Z" fill="#292A2E"/>
<path d="M66.8672 107.36L75.1203 104.163L73.9356 104.072C73.5536 104.034 73.1989 103.838 72.943 103.522C72.6871 103.207 72.5492 102.796 72.5572 102.372C72.568 102.153 72.6191 101.94 72.7072 101.744C72.7953 101.547 72.9186 101.373 73.0696 101.232C73.2207 101.09 73.3962 100.984 73.5856 100.92C73.775 100.856 73.9742 100.835 74.1711 100.859L88.7722 102.574L88.3929 107.759C88.2751 109.37 87.7246 110.905 86.8122 112.167C85.8997 113.43 84.6668 114.363 83.2715 114.846L76.9484 117.022C76.6218 117.143 76.2677 117.134 75.946 116.999C75.6243 116.864 75.3548 116.61 75.183 116.28C75.0337 115.979 74.9753 115.633 75.0166 115.293C75.0578 114.952 75.1965 114.635 75.4123 114.388C75.3983 114.377 75.3864 114.363 75.3775 114.347C75.3686 114.331 75.3628 114.313 75.3604 114.294C75.358 114.275 75.3591 114.256 75.3636 114.238C75.3682 114.22 75.3761 114.202 75.3868 114.188L74.2209 114.591C73.8575 114.726 73.4612 114.704 73.1122 114.528C72.7633 114.353 72.4876 114.037 72.3411 113.646C72.2213 113.291 72.2186 112.9 72.3335 112.543C72.4483 112.186 72.6734 111.885 72.9691 111.693C72.9556 111.686 72.9434 111.676 72.9332 111.663L72.4542 111.829C72.1276 111.949 71.7735 111.941 71.4518 111.806C71.1301 111.671 70.8605 111.417 70.6888 111.087C70.5074 110.721 70.4611 110.292 70.5597 109.89C70.6583 109.488 70.8941 109.143 71.2177 108.929C71.215 108.918 71.2135 108.907 71.2133 108.896L67.7762 110.228C67.4334 110.355 67.059 110.328 66.7341 110.153C66.4092 109.978 66.1599 109.668 66.0403 109.291C65.9207 108.913 65.9403 108.499 66.095 108.138C66.2497 107.777 66.5269 107.497 66.8667 107.36L66.8672 107.36Z" fill="#E98862"/>
<path opacity="0.2" d="M71.3492 109.045C71.3652 109.045 71.381 109.042 71.396 109.036L74.7205 107.7C74.7381 107.694 74.7542 107.684 74.7681 107.67C74.782 107.657 74.7933 107.641 74.8014 107.623C74.8095 107.604 74.8142 107.584 74.8151 107.564C74.8161 107.544 74.8133 107.523 74.807 107.504C74.8008 107.485 74.791 107.468 74.7785 107.453C74.7659 107.438 74.7508 107.426 74.734 107.418C74.7171 107.41 74.699 107.405 74.6806 107.405C74.6622 107.404 74.6439 107.408 74.6269 107.416L71.3024 108.752C71.2723 108.764 71.247 108.788 71.2311 108.818C71.2151 108.849 71.2094 108.885 71.215 108.92C71.2206 108.955 71.237 108.987 71.2616 109.01C71.2861 109.032 71.3171 109.045 71.3492 109.045Z" fill="#0A0A0A"/>
<path opacity="0.2" d="M73.0293 111.715C73.0449 111.715 73.0604 111.712 73.075 111.706L75.6954 110.679C75.7129 110.673 75.7291 110.663 75.7431 110.65C75.757 110.636 75.7684 110.62 75.7766 110.602C75.7847 110.584 75.7895 110.564 75.7906 110.544C75.7917 110.523 75.7891 110.503 75.783 110.484C75.7769 110.465 75.7673 110.447 75.7549 110.432C75.7425 110.417 75.7275 110.405 75.7108 110.397C75.6941 110.389 75.676 110.384 75.6577 110.383C75.6393 110.383 75.621 110.386 75.604 110.394L72.9836 111.421C72.9532 111.433 72.9276 111.457 72.9113 111.487C72.895 111.518 72.8891 111.554 72.8946 111.589C72.9 111.625 72.9165 111.656 72.9412 111.679C72.9658 111.702 72.997 111.715 73.0293 111.715Z" fill="#0A0A0A"/>
<path opacity="0.2" d="M75.4981 114.427C75.5147 114.427 75.5313 114.423 75.5468 114.417L76.7741 113.899C76.8069 113.884 76.8332 113.856 76.8472 113.82C76.8613 113.783 76.8621 113.743 76.8494 113.706C76.8367 113.669 76.8116 113.639 76.7793 113.623C76.747 113.606 76.7102 113.604 76.6766 113.617L75.4493 114.134C75.4195 114.147 75.3945 114.17 75.3789 114.201C75.3632 114.232 75.3578 114.268 75.3636 114.303C75.3694 114.338 75.386 114.369 75.4106 114.392C75.4351 114.414 75.4661 114.427 75.4981 114.427Z" fill="#0A0A0A"/>
<path d="M82.6543 118.648L133.824 128.023C135.401 128.212 136.997 127.996 138.486 127.389C139.975 126.783 141.317 125.803 142.405 124.528C143.494 123.252 144.301 121.715 144.762 120.037C145.223 118.359 145.326 116.586 145.063 114.857L134.329 67.7238C134.106 66.254 133.622 64.8473 132.906 63.5839C132.191 62.3206 131.257 61.2254 130.158 60.3609C127.939 58.615 125.184 57.9148 122.498 58.4142C119.812 58.9136 117.415 60.5718 115.835 63.0239C114.255 65.4761 113.622 68.5214 114.074 71.4899L122.264 103.983L85.0822 98.3699L82.6543 118.648Z" fill="#367CFF"/>
<path d="M128.935 105.04C128.969 105.039 129.002 105.025 129.027 104.999C129.053 104.973 129.068 104.937 129.071 104.899C129.073 104.861 129.063 104.824 129.041 104.794C129.02 104.764 128.989 104.745 128.955 104.739L122.577 103.683C122.559 103.679 122.541 103.68 122.524 103.685C122.506 103.689 122.49 103.698 122.475 103.71C122.46 103.722 122.448 103.737 122.439 103.754C122.43 103.771 122.424 103.79 122.421 103.81C122.416 103.849 122.425 103.89 122.447 103.922C122.468 103.954 122.501 103.976 122.536 103.982L128.914 105.037C128.921 105.038 128.928 105.039 128.935 105.04Z" fill="#0C0C0C"/>
<path d="M132.4 128.242C132.418 128.243 132.436 128.241 132.453 128.234C132.47 128.228 132.486 128.218 132.499 128.205C132.513 128.191 132.524 128.176 132.532 128.158C132.54 128.14 132.545 128.12 132.546 128.101C132.547 128.081 132.545 128.061 132.539 128.042C132.533 128.023 132.524 128.006 132.512 127.991C132.5 127.976 132.486 127.963 132.469 127.955C132.453 127.946 132.436 127.941 132.418 127.939L82.9418 118.534L85.3401 98.5584L122.265 103.985C122.286 103.988 122.308 103.986 122.328 103.978C122.348 103.97 122.366 103.957 122.381 103.94C122.396 103.923 122.407 103.902 122.414 103.88C122.42 103.857 122.421 103.833 122.418 103.81L118.422 84.7596C118.419 84.7399 118.413 84.721 118.404 84.7039C118.394 84.6869 118.382 84.6722 118.367 84.6606C118.352 84.649 118.336 84.6407 118.318 84.6364C118.3 84.632 118.282 84.6317 118.264 84.6352C118.247 84.6385 118.23 84.6457 118.214 84.6562C118.199 84.6668 118.186 84.6806 118.175 84.6968C118.165 84.713 118.158 84.7314 118.154 84.7508C118.15 84.7702 118.149 84.7903 118.152 84.8099L122.117 103.658L85.2372 98.2364C85.2191 98.2336 85.2007 98.2349 85.183 98.2401C85.1654 98.2453 85.1489 98.2543 85.1345 98.2667C85.1202 98.2792 85.1083 98.2948 85.0994 98.3124C85.0906 98.3301 85.085 98.3495 85.083 98.3696L82.6551 118.648C82.6512 118.687 82.6614 118.727 82.6835 118.758C82.7057 118.789 82.7379 118.809 82.7734 118.815L132.382 128.24C132.388 128.241 132.394 128.242 132.4 128.242Z" fill="#0C0C0C"/>
<path d="M84.602 123.368L72.8669 83.5014C72.6606 82.8009 72.2591 82.1904 71.7197 81.7574C71.1803 81.3245 70.5308 81.0913 69.8641 81.0913H22.0545C21.556 81.0912 21.0645 81.2216 20.6203 81.4717C20.1761 81.7219 19.7919 82.0847 19.499 82.5305C19.2061 82.9764 19.0128 83.4925 18.9351 84.0367C18.8574 84.5809 18.8974 85.1377 19.0518 85.6616L30.7869 125.526C30.9931 126.227 31.3947 126.837 31.9341 127.27C32.4735 127.703 33.123 127.936 33.7896 127.937H81.5995C82.0979 127.937 82.5892 127.806 83.0332 127.556C83.4772 127.306 83.8614 126.943 84.1543 126.498C84.4471 126.052 84.6403 125.536 84.7182 124.992C84.796 124.448 84.7562 123.891 84.602 123.368Z" fill="#292A2E"/>
<path d="M84.602 123.369L72.8669 83.5029C72.6606 82.8023 72.2591 82.1918 71.7197 81.7589C71.1803 81.326 70.5308 81.0928 69.8641 81.0928H22.0545C21.556 81.0927 21.0645 81.223 20.6203 81.4732C20.1761 81.7234 19.7919 82.0862 19.499 82.532C19.2061 82.9778 19.0128 83.4939 18.9351 84.0381C18.8574 84.5824 18.8974 85.1392 19.0518 85.663L30.7869 125.528C30.9931 126.228 31.3947 126.839 31.9341 127.272C32.4735 127.705 33.123 127.938 33.7896 127.938H81.5995C82.0979 127.938 82.5892 127.808 83.0332 127.558C83.4772 127.307 83.8614 126.945 84.1543 126.499C84.4471 126.053 84.6403 125.537 84.7182 124.993C84.796 124.449 84.7562 123.893 84.602 123.369Z" fill="white"/>
<path d="M81.5991 128.24H33.7892C33.0645 128.241 32.3581 127.988 31.7718 127.518C31.1854 127.047 30.7493 126.383 30.5263 125.621L18.7909 85.7547C18.6236 85.1856 18.5806 84.5808 18.6653 83.9898C18.75 83.3988 18.9601 82.8383 19.2783 82.3542C19.5966 81.8701 20.014 81.4761 20.4964 81.2044C20.9789 80.9327 21.5126 80.7911 22.0541 80.791H69.8651C70.5898 80.7896 71.2962 81.0424 71.8826 81.513C72.4691 81.9836 72.9052 82.6477 73.1283 83.4097L84.8623 123.275C85.0295 123.844 85.0724 124.448 84.9876 125.039C84.9029 125.63 84.6928 126.191 84.3746 126.675C84.0563 127.159 83.639 127.553 83.1566 127.825C82.6742 128.096 82.1405 128.238 81.5991 128.238V128.24ZM22.0541 81.3948C21.5989 81.3948 21.1502 81.5138 20.7446 81.7421C20.3391 81.9705 19.9882 82.3017 19.7207 82.7087C19.4532 83.1157 19.2767 83.5869 19.2057 84.0838C19.1346 84.5806 19.171 85.089 19.3118 85.5674L31.0472 125.433C31.2344 126.074 31.6009 126.632 32.0936 127.028C32.5864 127.423 33.1801 127.636 33.7892 127.634H81.5991C82.0542 127.634 82.5029 127.515 82.9084 127.287C83.3139 127.059 83.6647 126.727 83.9322 126.32C84.1996 125.913 84.3761 125.442 84.4472 124.945C84.5182 124.449 84.4819 123.94 84.3411 123.462L72.606 83.5955C72.4188 82.9553 72.0525 82.3972 71.56 82.0017C71.0674 81.6063 70.474 81.3938 69.8651 81.3948H22.0541Z" fill="#292A2E"/>
<path d="M50.569 110.583C53.3383 110.583 55.5833 108.102 55.5833 105.042C55.5833 101.982 53.3383 99.5005 50.569 99.5005C47.7997 99.5005 45.5547 101.982 45.5547 105.042C45.5547 108.102 47.7997 110.583 50.569 110.583Z" fill="white"/>
<path d="M50.5694 110.884C49.5235 110.884 48.5011 110.541 47.6314 109.899C46.7618 109.257 46.084 108.344 45.6838 107.276C45.2835 106.208 45.1788 105.033 45.3829 103.9C45.587 102.766 46.0906 101.725 46.8302 100.907C47.5698 100.09 48.5121 99.5335 49.5379 99.3081C50.5637 99.0826 51.627 99.1984 52.5933 99.6407C53.5596 100.083 54.3855 100.832 54.9665 101.793C55.5476 102.754 55.8577 103.884 55.8576 105.04C55.8559 106.59 55.2982 108.075 54.3069 109.171C53.3155 110.266 51.9714 110.882 50.5694 110.884ZM50.5694 99.8011C49.6319 99.8011 48.7154 100.108 47.9358 100.684C47.1563 101.26 46.5487 102.078 46.1899 103.035C45.8311 103.992 45.7372 105.046 45.9201 106.062C46.1029 107.078 46.5544 108.012 47.2173 108.744C47.8803 109.477 48.7249 109.976 49.6444 110.178C50.564 110.38 51.5171 110.277 52.3833 109.88C53.2495 109.484 53.9899 108.812 54.5108 107.951C55.0317 107.089 55.3098 106.076 55.3099 105.04C55.3085 103.651 54.8086 102.32 53.9199 101.337C53.0312 100.355 51.8263 99.8027 50.5694 99.8011Z" fill="#292A2E"/>
<path d="M3.18317 13.1317C8.51267 7.25428 15.7343 3.95345 23.2634 3.95345C30.7925 3.95345 38.0141 7.25428 43.3436 13.1317C43.4987 13.3031 43.6829 13.4391 43.8856 13.5319C44.0883 13.6247 44.3055 13.6724 44.5249 13.6724C44.7443 13.6724 44.9616 13.6247 45.1643 13.5319C45.367 13.4391 45.5512 13.3031 45.7063 13.1317C45.8614 12.9602 45.9845 12.7567 46.0684 12.5327C46.1524 12.3087 46.1956 12.0686 46.1956 11.8261C46.1956 11.5837 46.1524 11.3436 46.0684 11.1196C45.9845 10.8956 45.8614 10.692 45.7063 10.5206C39.7496 3.9521 31.6784 0.263184 23.2637 0.263184C14.8489 0.263184 6.77773 3.9521 0.82103 10.5206C0.662629 10.6912 0.536459 10.8949 0.449841 11.1198C0.363222 11.3447 0.317879 11.5864 0.316442 11.8308C0.315004 12.0752 0.357502 12.3175 0.441468 12.5437C0.525435 12.7698 0.649199 12.9753 0.80558 13.1481C0.961962 13.321 1.14785 13.4578 1.35245 13.5507C1.55706 13.6435 1.77631 13.6905 1.99749 13.689C2.21866 13.6875 2.43737 13.6374 2.6409 13.5417C2.84444 13.4461 3.02876 13.3067 3.18317 13.1317Z" fill="#FAFAFA"/>
<path d="M10.2692 20.963C13.718 17.1606 18.3908 15.0252 23.2624 15.0252C28.134 15.0252 32.8067 17.1606 36.2555 20.963C36.4099 21.1381 36.5942 21.2775 36.7977 21.3732C37.0012 21.4689 37.2199 21.519 37.4411 21.5205C37.6623 21.5221 37.8815 21.4751 38.0862 21.3823C38.2908 21.2895 38.4767 21.1527 38.6331 20.9798C38.7895 20.807 38.9133 20.6015 38.9972 20.3754C39.0812 20.1493 39.1238 19.907 39.1223 19.6625C39.1209 19.4181 39.0756 19.1764 38.989 18.9515C38.9024 18.7266 38.7763 18.5229 38.6179 18.3523C34.5421 13.8583 29.0198 11.3345 23.2624 11.3345C17.5049 11.3345 11.9826 13.8583 7.90683 18.3523C7.74845 18.5229 7.6223 18.7266 7.5357 18.9515C7.44911 19.1764 7.40379 19.4181 7.40238 19.6625C7.40097 19.907 7.44349 20.1493 7.52748 20.3754C7.61147 20.6015 7.73526 20.807 7.89165 20.9798C8.04805 21.1527 8.23395 21.2895 8.43857 21.3823C8.64318 21.4751 8.86244 21.5221 9.08362 21.5205C9.3048 21.519 9.52349 21.4689 9.72702 21.3732C9.93054 21.2775 10.1148 21.1381 10.2692 20.963Z" fill="#FAFAFA"/>
<path d="M17.3573 28.7954C18.925 27.0671 21.049 26.0964 23.2634 26.0964C25.4778 26.0964 27.6017 27.0671 29.1694 28.7954C29.484 29.1344 29.9068 29.3227 30.3462 29.3196C30.7856 29.3165 31.2061 29.1222 31.5168 28.7789C31.8275 28.4355 32.0033 27.9707 32.0061 27.4852C32.0089 26.9996 31.8385 26.5324 31.5318 26.1847C29.3372 23.7648 26.3637 22.4058 23.2635 22.4058C20.1634 22.4058 17.1898 23.7648 14.9952 26.1847C14.6905 26.5328 14.5218 26.9993 14.5254 27.4836C14.5291 27.9679 14.7048 28.4312 15.0146 28.7737C15.3245 29.1162 15.7437 29.3104 16.182 29.3144C16.6202 29.3185 17.0423 29.1321 17.3573 28.7954Z" fill="#FAFAFA"/>
<path d="M23.263 40.5797C25.1945 40.5797 26.7603 38.8492 26.7603 36.7146C26.7603 34.58 25.1945 32.8496 23.263 32.8496C21.3314 32.8496 19.7656 34.58 19.7656 36.7146C19.7656 38.8492 21.3314 40.5797 23.263 40.5797Z" fill="#FAFAFA"/>
</svg>
